<svg
   xmlns:dc="http://purl.org/dc/elements/1.1/"
   xmlns:cc="http://creativecommons.org/ns#"
   xmlns:rdf="http://www.w3.org/1999/02/22-rdf-syntax-ns#"
   xmlns:svg="http://www.w3.org/2000/svg"
   xmlns="http://www.w3.org/2000/svg"
   xmlns:sodipodi="http://sodipodi.sourceforge.net/DTD/sodipodi-0.dtd"
   xmlns:inkscape="http://www.inkscape.org/namespaces/inkscape"
   version="1.1"
   id="Ebene_1"
   x="0px"
   y="0px"
   viewBox="0 0 167.24564 55.731034"
   xml:space="preserve"
   sodipodi:docname="logo.svg"
   width="167.24564"
   height="55.731033"
   inkscape:version="0.92.3 (2405546, 2018-03-11)"><metadata
   id="metadata991"><rdf:RDF><cc:Work
       rdf:about=""><dc:format>image/svg+xml</dc:format><dc:type
         rdf:resource="http://purl.org/dc/dcmitype/StillImage" /><dc:title></dc:title></cc:Work></rdf:RDF></metadata><defs
   id="defs989" /><sodipodi:namedview
   pagecolor="#ffffff"
   bordercolor="#666666"
   borderopacity="1"
   objecttolerance="10"
   gridtolerance="10"
   guidetolerance="10"
   inkscape:pageopacity="0"
   inkscape:pageshadow="2"
   inkscape:window-width="1920"
   inkscape:window-height="1029"
   id="namedview987"
   showgrid="false"
   fit-margin-top="0"
   fit-margin-left="0"
   fit-margin-right="0"
   fit-margin-bottom="0"
   inkscape:zoom="11.587026"
   inkscape:cx="160.71141"
   inkscape:cy="29.889525"
   inkscape:window-x="0"
   inkscape:window-y="1080"
   inkscape:window-maximized="1"
   inkscape:current-layer="Ebene_1" />
<style
   type="text/css"
   id="style928">
	.st0{fill:#427DBF;}
</style>
<g
   id="g934"
   transform="matrix(0.52526893,0,0,0.52526893,-275.34597,-173.60138)">
	<path
   class="st0"
   d="m 840.6,332.5 c -1.3,-1.3 -2.9,-2 -4.8,-2 -1.9,0 -3.5,0.7 -4.8,2 -1.3,1.3 -2,2.9 -2,4.8 0,1.9 0.7,3.5 2,4.8 1.3,1.3 2.9,2 4.8,2 1.9,0 3.5,-0.7 4.8,-2 1.3,-1.3 2,-2.9 2,-4.8 0,-1.9 -0.7,-3.4 -2,-4.8 z m -0.6,9 c -1.1,1.2 -2.5,1.7 -4.1,1.7 -1.6,0 -3,-0.6 -4.1,-1.7 -1.1,-1.2 -1.7,-2.5 -1.7,-4.2 0,-1.7 0.6,-3 1.7,-4.2 1.1,-1.2 2.5,-1.7 4.1,-1.7 1.6,0 3,0.6 4.1,1.7 1.1,1.2 1.7,2.5 1.7,4.2 0,1.7 -0.6,3 -1.7,4.2 z"
   id="path930"
   inkscape:connector-curvature="0"
   style="fill:#427dbf" />
	<path
   class="st0"
   d="m 837.1,337.6 c 0.5,-0.2 0.9,-0.5 1.2,-0.8 0.3,-0.3 0.4,-0.7 0.4,-1.2 0,-0.4 -0.1,-0.7 -0.2,-0.9 -0.2,-0.2 -0.4,-0.5 -0.7,-0.6 -0.3,-0.2 -0.6,-0.3 -0.9,-0.3 -0.3,0 -0.7,-0.1 -1.2,-0.1 h -2.4 v 7 h 1.3 V 338 h 1.2 l 1.6,2.7 h 1.7 z m -0.7,-0.7 c -0.2,0 -0.5,0.1 -0.8,0.1 h -1 v -2.4 h 1.1 c 0.3,0 0.5,0 0.7,0 0.2,0 0.3,0.1 0.5,0.2 0.2,0.1 0.3,0.2 0.4,0.4 0.1,0.1 0.1,0.3 0.1,0.5 0,0.2 0,0.4 -0.1,0.6 -0.1,0.2 -0.2,0.3 -0.3,0.4 -0.2,0.1 -0.4,0.2 -0.6,0.2 z"
   id="path932"
   inkscape:connector-curvature="0"
   style="fill:#427dbf" />
</g>
<path
   class="st0"
   d="m 122.91293,32.461627 c -1.57581,1.523279 -3.46678,2.311182 -5.56785,2.311182 -3.41425,0 -6.30323,-2.206129 -7.40629,-5.252688 h 21.53603 c 0.15757,-0.840431 0.26262,-1.680861 0.26262,-2.573819 0,-7.93156 -6.46081,-14.392367 -14.39236,-14.392367 -7.8265,0 -14.23479,6.303226 -14.33985,14.129733 v 0.525269 c 0.15759,7.826508 6.51335,14.129735 14.33985,14.129735 5.88301,0 10.97812,-3.466775 13.2893,-8.877045 z m -5.56785,-13.341831 c 3.41425,0 6.35575,2.206129 7.40629,5.305216 h -14.81258 c 1.05054,-3.099087 3.99204,-5.305216 7.40629,-5.305216 z"
   id="path936"
   inkscape:connector-curvature="0"
   style="fill:#427dbf;stroke-width:0.52526897" />
<g
   id="g940"
   transform="matrix(0.52526893,0,0,0.52526893,-275.34597,-173.60138)">
	<polygon
   class="st0"
   points="818.9,354.2 818.9,330.9 806.5,330.9 806.5,354.2 799.9,354.2 799.9,366.4 806.5,366.4 806.5,407.9 818.9,407.9 818.9,366.4 825.5,366.4 825.5,354.2 "
   id="polygon938"
   style="fill:#427dbf" />
</g>
<path
   class="st0"
   d="m 145.55202,34.667756 v 0 c -4.83247,0 -4.885,-2.783925 -4.93753,-5.462797 V 0.15758704 h -6.51333 V 29.257487 c 0,6.986075 1.47075,11.398335 9.71747,11.398335 h 1.73339 z"
   id="path942"
   inkscape:connector-curvature="0"
   style="fill:#427dbf;stroke-width:0.52526897" />
<path
   class="st0"
   d="M 38.187051,40.498241 V 24.530066 c 0,-3.204141 2.048549,-5.777959 4.517313,-5.777959 2.468764,0 4.517312,2.573818 4.517312,5.725431 0,0 0,0.05253 0,0.05253 v 15.968175 h 6.565862 V 24.53007 c 0,-3.204141 2.04855,-5.777958 4.517314,-5.777958 2.52129,0 4.517311,2.573817 4.517311,5.777958 v 15.968175 h 6.513335 V 24.53007 c 0,-6.775969 -4.990054,-12.34382 -11.083174,-12.34382 -3.04656,0 -5.777958,1.3657 -7.826506,3.571829 C 48.429795,13.55195 45.64587,12.18625 42.59931,12.18625 c -6.09312,0 -11.083174,5.515323 -11.083174,12.34382 v 15.968175 z"
   id="path944"
   inkscape:connector-curvature="0"
   style="fill:#427dbf;stroke-width:0.52526897" />
<path
   class="st0"
   d="m 86.406738,12.553935 c -2.888978,0 -5.56785,0.840429 -7.826506,2.311182 V 0.10506014 H 72.066897 V 26.683668 c 0,0.05253 0,0.157581 0,0.210108 0,0.05253 0,0.15758 0,0.210107 v 0.157581 0 c 0.210107,7.773981 6.565862,14.02468 14.339841,14.02468 7.931562,0 14.392372,-6.460807 14.392372,-14.392368 0,-7.879034 -6.46081,-14.339841 -14.392372,-14.339841 z m 0,22.218874 c -4.254677,0 -7.721452,-3.414247 -7.826506,-7.668926 v -0.262634 c 0.05253,-4.254679 3.571829,-7.668927 7.826506,-7.668927 4.307206,0 7.826508,3.519302 7.826508,7.826508 0,4.254678 -3.519302,7.773979 -7.826508,7.773979 z"
   id="path946"
   inkscape:connector-curvature="0"
   style="fill:#427dbf;stroke-width:0.52526897" />
<path
   class="st0"
   d="M 28.679683,26.473561 C 28.679683,18.542 22.218876,12.081192 14.339842,12.081192 6.408281,12.081192 0,18.542 0,26.473561 c 0,0 0,0 0,0 v 0 c 0,3.939517 1.5758068,7.563872 4.2021514,10.13769 2.5738178,2.573817 6.0931196,4.202152 9.9801096,4.202152 3.781936,0 6.303227,-1.313173 7.984087,-3.151614 0,0 0.05253,0.105054 0.105054,0.262634 v 0 0 c 0.210108,0.68285 0.735377,2.521292 0.735377,2.521292 h 5.725432 V 26.473561 Z m -14.339841,8.194195 c -4.254679,0 -7.7214535,-3.414248 -7.8265073,-7.668926 v -0.262635 c 0.052528,-4.254678 3.5718283,-7.668927 7.8265073,-7.668927 4.307205,0 7.826506,3.519302 7.826506,7.826508 0,4.254678 -3.519301,7.77398 -7.826506,7.77398 z"
   id="path948"
   inkscape:connector-curvature="0"
   style="fill:#427dbf;stroke-width:0.52526897" />
<g
   id="g984"
   transform="matrix(0.52526893,0,0,0.52526893,-275.34597,-173.60138)">
	<path
   class="st0"
   d="m 531.3,424.2 h 7.8 v 1.6 h -5.8 v 2.9 h 5.5 v 1.6 h -5.5 v 4.8 h -2 z"
   id="path950"
   inkscape:connector-curvature="0"
   style="fill:#427dbf" />
	<path
   class="st0"
   d="m 551.7,435.3 c -3.3,0 -5.3,-2.3 -5.3,-5.7 0,-3.4 2.1,-5.7 5.3,-5.7 3.2,0 5.3,2.2 5.3,5.7 0,3.5 -2.1,5.7 -5.3,5.7 z m 0,-9.7 c -1.9,0 -3.3,1.3 -3.3,4.1 0,2.7 1.5,4.1 3.3,4.1 1.9,0 3.3,-1.4 3.3,-4.1 0,-2.8 -1.4,-4.1 -3.3,-4.1 z m -1.1,-3.7 v 1.7 H 549 v -1.7 z m 3.6,0 v 1.7 h -1.6 v -1.7 z"
   id="path952"
   inkscape:connector-curvature="0"
   style="fill:#427dbf" />
	<path
   class="st0"
   d="m 569.7,430.7 c -0.2,0 -0.4,0 -0.6,0 h -1.7 v 4.4 h -2 v -11 h 3.4 c 3.3,0 5,0.8 5,3.3 0,1.4 -0.7,2.4 -2.1,2.9 l 2.5,4.8 H 572 Z m -2.3,-4.9 v 3.3 h 1.7 c 1.7,0 2.6,-0.3 2.6,-1.7 0,-1.5 -1.2,-1.6 -2.7,-1.6 z"
   id="path954"
   inkscape:connector-curvature="0"
   style="fill:#427dbf" />
	<path
   class="st0"
   d="m 585.1,424.2 c 3.5,0 6.4,1.1 6.4,5.5 0,4.4 -2.8,5.5 -6.4,5.5 h -2.7 v -11 z m -0.1,1.6 h -0.7 v 7.7 h 0.7 c 2.2,0 4.5,-0.3 4.5,-3.9 0,-3.6 -2.4,-3.8 -4.5,-3.8 z"
   id="path956"
   inkscape:connector-curvature="0"
   style="fill:#427dbf" />
	<path
   class="st0"
   d="m 599.9,424.2 h 7.9 v 1.6 h -5.9 v 2.9 h 5.6 v 1.6 h -5.6 v 3.2 h 5.9 v 1.6 h -7.9 z"
   id="path958"
   inkscape:connector-curvature="0"
   style="fill:#427dbf" />
	<path
   class="st0"
   d="m 620.2,430.7 c -0.2,0 -0.4,0 -0.6,0 h -1.7 v 4.4 h -2 v -11 h 3.4 c 3.3,0 5,0.8 5,3.3 0,1.4 -0.7,2.4 -2.1,2.9 l 2.5,4.8 h -2.2 z m -2.3,-4.9 v 3.3 h 1.7 c 1.7,0 2.6,-0.3 2.6,-1.7 0,-1.5 -1.2,-1.6 -2.7,-1.6 z"
   id="path960"
   inkscape:connector-curvature="0"
   style="fill:#427dbf" />
	<path
   class="st0"
   d="m 642.4,427.4 -1.9,0.3 c -0.4,-1.4 -1.4,-2.1 -2.9,-2.1 -1.9,0 -3.3,1.3 -3.3,4.1 0,2.7 1.3,4.1 3.3,4.1 1.3,0 3,-0.6 3,-2.6 V 431 h -2.8 v -1.6 h 4.7 v 5.8 H 641 l -0.1,-1.3 c -0.7,1 -1.9,1.5 -3.4,1.5 -3.2,0 -5.1,-2.2 -5.1,-5.7 0,-3.5 2.1,-5.7 5.3,-5.7 2.5,0 4.2,1.4 4.7,3.4 z"
   id="path962"
   inkscape:connector-curvature="0"
   style="fill:#427dbf" />
	<path
   class="st0"
   d="m 652.9,424.2 v 6.4 c 0,2.1 0.5,3.2 2.6,3.2 2.1,0 2.6,-1.2 2.6,-3.2 v -6.4 h 2 v 6.3 c 0,3.5 -1.3,4.9 -4.6,4.9 -3.2,0 -4.6,-1.2 -4.6,-4.9 v -6.3 z"
   id="path964"
   inkscape:connector-curvature="0"
   style="fill:#427dbf" />
	<path
   class="st0"
   d="m 673.1,430.7 c -0.2,0 -0.4,0 -0.6,0 h -1.7 v 4.4 h -2 v -11 h 3.4 c 3.3,0 5,0.8 5,3.3 0,1.4 -0.7,2.4 -2.1,2.9 l 2.5,4.8 h -2.2 z m -2.3,-4.9 v 3.3 h 1.7 c 1.7,0 2.6,-0.3 2.6,-1.7 0,-1.5 -1.2,-1.6 -2.7,-1.6 z"
   id="path966"
   inkscape:connector-curvature="0"
   style="fill:#427dbf" />
	<path
   class="st0"
   d="m 687.9,425.8 h -3.5 v -1.6 h 9 v 1.6 h -3.5 v 9.4 h -2 z"
   id="path968"
   inkscape:connector-curvature="0"
   style="fill:#427dbf" />
	<path
   class="st0"
   d="m 701.2,424.2 h 7.9 v 1.6 h -5.9 v 2.9 h 5.6 v 1.6 h -5.6 v 3.2 h 5.9 v 1.6 h -7.9 z"
   id="path970"
   inkscape:connector-curvature="0"
   style="fill:#427dbf" />
	<path
   class="st0"
   d="m 729,424.2 v 12.4 h -1.6 v -12.4 z"
   id="path972"
   inkscape:connector-curvature="0"
   style="fill:#427dbf" />
	<path
   class="st0"
   d="m 748,424.2 h 4.2 c 2,0 4,0.5 4,2.8 0,1 -0.6,2 -1.2,2.4 0.9,0.4 1.7,1.1 1.7,2.6 0,2.4 -1.9,3.3 -4.2,3.3 H 748 Z m 2,4.5 h 2.4 c 1.1,0 1.8,-0.4 1.8,-1.5 0,-1 -0.7,-1.4 -1.8,-1.4 H 750 Z m 0,4.8 h 2.6 c 1.4,0 2.1,-0.5 2.1,-1.6 0,-1.1 -0.7,-1.6 -2.2,-1.6 H 750 Z"
   id="path974"
   inkscape:connector-curvature="0"
   style="fill:#427dbf" />
	<path
   class="st0"
   d="m 764.9,424.2 h 7.9 v 1.6 h -5.9 v 2.9 h 5.6 v 1.6 h -5.6 v 3.2 h 5.9 v 1.6 h -7.9 z"
   id="path976"
   inkscape:connector-curvature="0"
   style="fill:#427dbf" />
	<path
   class="st0"
   d="m 783,433.5 h 5.6 v 1.6 H 781 v -11 h 2 z"
   id="path978"
   inkscape:connector-curvature="0"
   style="fill:#427dbf" />
	<path
   class="st0"
   d="m 797.4,425.8 h -3.5 v -1.6 h 9 v 1.6 h -3.5 v 9.4 h -2 z"
   id="path980"
   inkscape:connector-curvature="0"
   style="fill:#427dbf" />
	<path
   class="st0"
   d="m 814.2,424 c 2.2,0 4,1.1 4.4,3.2 l -1.9,0.3 c -0.3,-1.4 -1.5,-1.9 -2.6,-1.9 -0.9,0 -2.1,0.3 -2.1,1.4 0,0.8 0.7,1.2 1.6,1.4 l 1.4,0.3 c 1.8,0.4 3.8,1 3.8,3.3 0,2.2 -2.1,3.3 -4.4,3.3 -2.7,0 -4.4,-1.5 -4.8,-3.6 l 1.9,-0.3 c 0.3,1.6 1.4,2.3 2.9,2.3 1.3,0 2.4,-0.5 2.4,-1.6 0,-1 -1,-1.4 -2.3,-1.7 l -1.4,-0.3 c -1.7,-0.4 -3.1,-1.2 -3.1,-3.1 0.1,-2.1 2.3,-3 4.2,-3 z"
   id="path982"
   inkscape:connector-curvature="0"
   style="fill:#427dbf" />
</g>
</svg>